# xmcd
#
# Track frame offsets: 
#        150
#        39064
#        72243
#        104861
#        124226
#        162829
#        190364
#        214536
#
# Disc length: 3216 seconds
#
# Revision: 0
# Processed by: cddbd v1.5.2PL0 Copyright (c) Steve Scherf et al.
# Submitted via: ExactAudioCopy v1.3
#
DISCID=6f0c8e08
DTITLE=Matt Schofield - The Trio, Live
DYEAR=2006
DGENRE=British Blues, Electric Blues, Blues Rock
TTITLE0=Uncle Junior
TTITLE1=Matt Schofield Trio - Everyday I Have The Blues
TTITLE2=Matt Schofield Trio - Bloody Murder
TTITLE3=Matt Schofield Trio - Treat Me Lowdown
TTITLE4=Matt Schofield Trio - Cissy Strut
TTITLE5=Matt Schofield Trio - Travellin' South
TTITLE6=Matt Schofield Trio - Sittin' On Top Of The World
TTITLE7=Matt Schofield Trio - Hippology
EXTD=
EXTT0=
EXTT1=
EXTT2=
EXTT3=
EXTT4=
EXTT5=
EXTT6=
EXTT7=
PLAYORDER=
